<svg xmlns="http://www.w3.org/2000/svg" version="1.1" xmlns:xlink="http://www.w3.org/1999/xlink" xmlns:svgjs="http://svgjs.com/svgjs" width="1440" height="560" preserveAspectRatio="none" viewBox="0 0 1440 560"><g mask="url(&quot;#SvgjsMask1228&quot;)" fill="none"><path d="M1143.809,303.591C1170.144,303.411,1191.783,285.43,1205.184,262.759C1218.87,239.606,1226.403,210.679,1212.247,187.811C1198.597,165.759,1169.744,163.451,1143.809,163.608C1118.251,163.762,1090.388,166.99,1076.789,188.63C1062.514,211.345,1067.454,240.429,1080.966,263.606C1094.368,286.596,1117.199,303.773,1143.809,303.591" fill="rgba(170, 207, 208, 0.3)" class="triangle-float2"></path><path d="M-2.218,334.77C16.797,334.267,29.327,317.335,38.823,300.853C48.3,284.406,56.805,264.998,47.523,248.44C38.104,231.637,17.042,227.322,-2.218,227.637C-20.814,227.942,-39.697,234.047,-49.216,250.024C-58.934,266.333,-56.404,286.523,-47.197,303.126C-37.668,320.309,-21.859,335.289,-2.218,334.77" fill="rgba(170, 207, 208, 0.3)" class="triangle-float3"></path><path d="M680.002,585.759C725.312,587.45,772.847,573.295,796.027,534.326C819.629,494.648,810.22,445.465,787.284,405.399C764.176,365.033,726.508,332.416,680.002,331.647C632.316,330.859,588.53,359.503,566.395,401.748C545.67,441.301,554.61,488.194,578.068,526.19C600.227,562.081,637.851,584.186,680.002,585.759" fill="rgba(170, 207, 208, 0.3)" class="triangle-float2"></path><path d="M1072.969,427.695C1108.994,429.432,1144.198,410.903,1161.563,379.292C1178.379,348.681,1172.306,311.046,1153.056,281.904C1135.706,255.639,1104.447,245.029,1072.969,245.174C1041.791,245.318,1010.067,255.828,994.152,282.638C977.948,309.935,982.88,343.513,998.035,371.406C1014.021,400.827,1039.525,426.082,1072.969,427.695" fill="rgba(170, 207, 208, 0.3)" class="triangle-float3"></path><path d="M24.053,394.734C48.785,395.347,77.124,392.37,88.983,370.657C100.579,349.425,85.912,325.377,73.161,304.818C61.37,285.807,46.423,266.205,24.053,265.968C1.393,265.728,-15.428,284.21,-26.891,303.758C-38.529,323.603,-46.771,347.498,-35.531,367.571C-24.1,387.983,0.665,394.154,24.053,394.734" fill="rgba(170, 207, 208, 0.3)" class="triangle-float2"></path><path d="M559.518,290.051C582.992,289.727,598.654,267.963,609.116,246.947C618.283,228.534,618.565,207.906,609.637,189.376C599.153,167.617,583.603,145.816,559.518,144.005C532.884,142.002,506.309,156.808,494.391,180.711C483.408,202.739,494.895,227.203,507.491,248.35C519.681,268.816,535.699,290.38,559.518,290.051" fill="rgba(170, 207, 208, 0.3)" class="triangle-float2"></path><path d="M60.68,234.409C75.652,234.258,91.912,231.119,99.278,218.083C106.564,205.19,100.281,190.032,93.064,177.101C85.59,163.709,75.983,149.937,60.68,148.922C43.929,147.811,28.216,157.67,19.887,172.246C11.62,186.713,11.564,204.947,20.705,218.877C29.111,231.687,45.359,234.564,60.68,234.409" fill="rgba(170, 207, 208, 0.3)" class="triangle-float3"></path><path d="M1297.181,582.801C1320.636,581.241,1337.378,563.163,1349.672,543.127C1362.772,521.778,1375.508,496.509,1363.679,474.43C1351.42,451.55,1323.088,443.551,1297.181,445.158C1274.015,446.595,1255.885,462.195,1243.584,481.878C1230.279,503.168,1219.25,528.845,1231.025,551.017C1243.323,574.175,1271.018,584.541,1297.181,582.801" fill="rgba(170, 207, 208, 0.3)" class="triangle-float2"></path><path d="M1451.131,665.199C1500.027,667.271,1548.381,647.979,1575.137,607C1604.553,561.947,1614.24,503.364,1587.149,456.875C1560.21,410.646,1504.618,392.82,1451.131,394.2C1400.262,395.512,1350.482,418.581,1326.747,463.592C1304.294,506.172,1318.807,556.243,1344.082,597.21C1367.871,635.769,1405.865,663.281,1451.131,665.199" fill="rgba(170, 207, 208, 0.3)" class="triangle-float3"></path></g><defs><mask id="SvgjsMask1228"><rect width="1440" height="560" fill="#ffffff"></rect></mask><style>
            @keyframes float1 {
                0%{transform: translate(0, 0)}
                50%{transform: translate(-10px, 0)}
                100%{transform: translate(0, 0)}
            }

            .triangle-float1 {
                animation: float1 5s infinite;
            }

            @keyframes float2 {
                0%{transform: translate(0, 0)}
                50%{transform: translate(-5px, -5px)}
                100%{transform: translate(0, 0)}
            }

            .triangle-float2 {
                animation: float2 4s infinite;
            }

            @keyframes float3 {
                0%{transform: translate(0, 0)}
                50%{transform: translate(0, -10px)}
                100%{transform: translate(0, 0)}
            }

            .triangle-float3 {
                animation: float3 6s infinite;
            }
        </style></defs></svg>