<svg xmlns="http://www.w3.org/2000/svg" version="1.1" xmlns:xlink="http://www.w3.org/1999/xlink" xmlns:svgjs="http://svgjs.com/svgjs" width="1400" height="560" preserveAspectRatio="none" viewBox="0 0 1400 560"><g mask="url(&quot;#SvgjsMask1059&quot;)" fill="none"><path d="M750.972,233.027C790.153,233.097,823.909,207.21,842.61,172.78C860.451,139.934,858.54,100.92,840.516,68.174C821.765,34.106,789.806,4.239,750.972,6.288C714.355,8.22,694.048,44.677,676.424,76.832C659.762,107.233,644.967,141.166,659.9,172.453C676.732,207.719,711.895,232.957,750.972,233.027" fill="rgba(170, 207, 208, 0.3)" class="triangle-float1"></path><path d="M1302.588,429.265C1322.099,428.443,1335.929,411.854,1344.686,394.4C1352.447,378.933,1352.237,361.385,1344.383,345.965C1335.625,328.769,1321.846,312.984,1302.588,311.746C1281.419,310.385,1260.735,321.438,1250.322,339.919C1240.077,358.101,1243.322,380.214,1253.86,398.228C1264.282,416.044,1281.966,430.134,1302.588,429.265" fill="rgba(170, 207, 208, 0.3)" class="triangle-float1"></path><path d="M62.212,218.081C91.897,218.446,117.924,199.089,131.973,172.937C145.287,148.153,143.863,117.973,128.73,94.256C114.655,72.197,88.37,64.302,62.212,63.603C34.433,62.861,3.898,66.922,-10.762,90.529C-26.021,115.101,-19.006,146.152,-4.642,171.259C9.838,196.57,33.054,217.723,62.212,218.081" fill="rgba(170, 207, 208, 0.3)" class="triangle-float1"></path><path d="M893.504,520.062C911.544,521.061,928.524,510.774,937.474,495.078C946.344,479.523,945.723,460.211,936.322,444.971C927.363,430.447,910.569,423.755,893.504,423.8C876.527,423.845,859.174,430.275,851.076,445.196C843.261,459.594,849.153,476.383,857.23,490.635C865.458,505.154,876.842,519.139,893.504,520.062" fill="rgba(170, 207, 208, 0.3)" class="triangle-float2"></path><path d="M75.53,584.377C107.773,585.204,136.234,564.738,152.202,536.714C168.005,508.98,171.646,473.703,153.594,447.377C137.181,423.441,104.452,422.473,75.53,424.897C51.528,426.909,30.375,438.603,17.259,458.805C2.651,481.306,-5.914,508.615,5.378,532.95C18.459,561.139,44.464,583.581,75.53,584.377" fill="rgba(170, 207, 208, 0.3)" class="triangle-float2"></path><path d="M627.431,546.073C650.027,544.77,671.173,535.27,683.268,516.139C696.296,495.531,700.6,469.784,689.328,448.165C677.234,424.969,653.586,409.546,627.431,409.044C600.415,408.526,575.132,422.509,561.278,445.708C547.061,469.514,543.944,500.141,559.204,523.292C573.346,544.748,601.776,547.552,627.431,546.073" fill="rgba(170, 207, 208, 0.3)" class="triangle-float2"></path><path d="M627.134,90.814C648.296,91.861,669.812,84.738,681.468,67.044C694.312,47.546,698.022,21.695,685.747,1.834C673.941,-17.268,649.514,-22.707,627.134,-20.867C607.941,-19.289,592.435,-6.592,583.134,10.271C574.187,26.492,572.493,45.837,581.374,62.094C590.628,79.033,607.856,89.861,627.134,90.814" fill="rgba(170, 207, 208, 0.3)" class="triangle-float1"></path><path d="M1261.881,112.568C1293.235,112.897,1324.488,100.633,1340.585,73.724C1357.078,46.154,1355.969,11.035,1338.905,-16.185C1322.8,-41.875,1292.201,-52.011,1261.881,-51.822C1231.947,-51.636,1202.135,-40.764,1186.501,-15.236C1170.204,11.374,1170.132,45.227,1185.984,72.104C1201.595,98.572,1231.154,112.246,1261.881,112.568" fill="rgba(170, 207, 208, 0.3)" class="triangle-float1"></path><path d="M230.648,495.737C290.209,497.093,335.593,448.243,364.33,396.056C391.881,346.022,402.255,285.751,373.431,236.439C344.834,187.516,287.311,166.598,230.648,167.357C175.442,168.097,121.111,191.891,94.342,240.178C68.262,287.224,81.797,342.736,107.112,390.198C134.43,441.416,172.615,494.415,230.648,495.737" fill="rgba(170, 207, 208, 0.3)" class="triangle-float1"></path></g><defs><mask id="SvgjsMask1059"><rect width="1400" height="560" fill="#ffffff"></rect></mask><style>
            @keyframes float1 {
                0%{transform: translate(0, 0)}
                50%{transform: translate(-10px, 0)}
                100%{transform: translate(0, 0)}
            }

            .triangle-float1 {
                animation: float1 5s infinite;
            }

            @keyframes float2 {
                0%{transform: translate(0, 0)}
                50%{transform: translate(-5px, -5px)}
                100%{transform: translate(0, 0)}
            }

            .triangle-float2 {
                animation: float2 4s infinite;
            }

            @keyframes float3 {
                0%{transform: translate(0, 0)}
                50%{transform: translate(0, -10px)}
                100%{transform: translate(0, 0)}
            }

            .triangle-float3 {
                animation: float3 6s infinite;
            }
        </style></defs></svg>