<svg xmlns="http://www.w3.org/2000/svg" version="1.1" xmlns:xlink="http://www.w3.org/1999/xlink" xmlns:svgjs="http://svgjs.com/svgjs" width="1440" height="560" preserveAspectRatio="none" viewBox="0 0 1440 560"><g mask="url(&quot;#SvgjsMask1234&quot;)" fill="none"><path d="M121.87,639.86C163.885,639.583,202.203,615.126,221.9,578.013C240.476,543.011,233.539,501.542,213.386,467.424C193.625,433.97,160.72,409.215,121.87,408.668C82.12,408.109,46.227,430.691,25.783,464.785C4.703,499.94,-0.197,543.415,19.525,579.35C39.962,616.587,79.394,640.141,121.87,639.86" fill="rgba(170, 207, 208, 0.3)" class="triangle-float1"></path><path d="M1229.679,667.287C1279.796,666.696,1326.133,643.583,1353.705,601.729C1384.624,554.795,1404.41,494.13,1375.502,445.931C1347.114,398.6,1284.741,391.163,1229.679,394.939C1181.945,398.213,1139.912,423.07,1114.821,463.809C1088.285,506.894,1075.608,560.649,1100.482,604.714C1125.692,649.376,1178.397,667.892,1229.679,667.287" fill="rgba(170, 207, 208, 0.3)" class="triangle-float1"></path><path d="M1424.534,147.925C1458.6,147.928,1492.623,133.244,1508.774,103.25C1524.262,74.487,1514.592,40.326,1497.449,12.517C1481.294,-13.69,1455.311,-32.666,1424.534,-33.405C1392.456,-34.176,1362.122,-18.455,1345.286,8.861C1327.571,37.604,1323.599,73.903,1340.316,103.238C1357.18,132.832,1390.472,147.922,1424.534,147.925" fill="rgba(170, 207, 208, 0.3)" class="triangle-float2"></path><path d="M1035.304,720.503C1083.938,722.339,1133.732,700.293,1155.768,656.898C1176.347,616.372,1153.457,571.614,1130.966,532.117C1108.133,492.02,1081.27,449.372,1035.304,445.347C983.291,440.792,929.54,466.053,905.432,512.366C882.646,556.139,903.5,606.495,929.624,648.362C953.824,687.145,989.623,718.779,1035.304,720.503" fill="rgba(170, 207, 208, 0.3)" class="triangle-float2"></path><path d="M608.704,306.003C660.521,307.285,715.907,295.784,743.266,251.76C771.865,205.74,764.35,146.766,736.569,100.247C709.524,54.961,661.45,26.687,608.704,26.438C555.518,26.187,504.86,52.704,478.728,99.029C453.014,144.613,457.368,201.054,485.201,245.375C511.341,287.001,559.566,304.787,608.704,306.003" fill="rgba(170, 207, 208, 0.3)" class="triangle-float3"></path><path d="M157.207,348.906C197.716,347.627,225.431,312.219,244.504,276.459C262.212,243.258,269.592,204.597,251.884,171.396C233.163,136.295,196.923,115.064,157.207,112.782C112.757,110.227,63.779,120.707,41.597,159.311C19.468,197.822,36.681,244.37,59.805,282.292C81.753,318.286,115.07,350.237,157.207,348.906" fill="rgba(170, 207, 208, 0.3)" class="triangle-float1"></path><path d="M935.616,288.777C957.027,288.896,978.353,281.496,989.957,263.502C1002.561,243.958,1004.805,219.022,993.823,198.522C982.236,176.891,960.139,162.938,935.616,162.06C909.456,161.123,881.943,170.935,869.71,194.078C858.028,216.178,868.029,242.388,882.308,262.906C894.401,280.282,914.446,288.66,935.616,288.777" fill="rgba(170, 207, 208, 0.3)" class="triangle-float2"></path><path d="M413.958,594.856C470.524,591.985,507.092,541.691,534.89,492.343C561.995,444.224,585.173,387.443,557.816,339.467C530.286,291.188,469.49,278.023,413.958,280.266C362.79,282.332,316.499,307.184,288.908,350.326C258.754,397.475,244.236,455.971,269.718,505.8C297.293,559.721,353.473,597.925,413.958,594.856" fill="rgba(170, 207, 208, 0.3)" class="triangle-float2"></path><path d="M424.348,619.195C457.461,617.871,489.472,603.475,505.661,574.559C521.518,546.236,517.241,511.443,500.11,483.872C483.94,457.848,454.945,445.272,424.348,443.695C390.107,441.93,352.967,446.914,333.734,475.297C312.434,506.731,310.706,549.412,330.939,581.543C350.112,611.99,388.396,620.632,424.348,619.195" fill="rgba(170, 207, 208, 0.3)" class="triangle-float2"></path></g><defs><mask id="SvgjsMask1234"><rect width="1440" height="560" fill="#ffffff"></rect></mask><style>
            @keyframes float1 {
                0%{transform: translate(0, 0)}
                50%{transform: translate(-10px, 0)}
                100%{transform: translate(0, 0)}
            }

            .triangle-float1 {
                animation: float1 5s infinite;
            }

            @keyframes float2 {
                0%{transform: translate(0, 0)}
                50%{transform: translate(-5px, -5px)}
                100%{transform: translate(0, 0)}
            }

            .triangle-float2 {
                animation: float2 4s infinite;
            }

            @keyframes float3 {
                0%{transform: translate(0, 0)}
                50%{transform: translate(0, -10px)}
                100%{transform: translate(0, 0)}
            }

            .triangle-float3 {
                animation: float3 6s infinite;
            }
        </style></defs></svg>