<svg xmlns="http://www.w3.org/2000/svg" version="1.1" xmlns:xlink="http://www.w3.org/1999/xlink" xmlns:svgjs="http://svgjs.com/svgjs" width="1440" height="560" preserveAspectRatio="none" viewBox="0 0 1440 560"><g mask="url(&quot;#SvgjsMask1246&quot;)" fill="none"><path d="M753.02,296.273C770.052,295.551,788.017,292.156,796.945,277.634C806.227,262.535,804.251,243.153,794.95,228.065C786.1,213.708,769.886,206.263,753.02,206.377C736.367,206.489,721.384,214.829,712.058,228.625C701.264,244.593,692.149,265.167,702.132,281.654C711.93,297.835,734.121,297.074,753.02,296.273" fill="rgba(170, 207, 208, 0.3)" class="triangle-float2"></path><path d="M328.111,688.014C366.483,690.023,408.336,678.536,426.561,644.708C444.187,611.991,425.136,574.762,406.422,542.655C387.897,510.873,364.751,479.08,328.111,475.799C286.026,472.031,240.389,488.489,221.051,526.057C202.734,561.64,223.961,601.871,246.03,635.257C265.253,664.337,293.3,686.192,328.111,688.014" fill="rgba(170, 207, 208, 0.3)" class="triangle-float2"></path><path d="M515.461,453.037C545.965,453.399,576.541,441.795,592.217,415.625C608.289,388.794,607.317,354.343,590.297,328.103C574.563,303.845,544.346,298.593,515.461,297.291C483.121,295.833,445.242,293.418,427.946,320.783C409.988,349.196,423.251,385.807,441.8,413.838C458.251,438.699,485.652,452.683,515.461,453.037" fill="rgba(170, 207, 208, 0.3)" class="triangle-float3"></path><path d="M548.305,227.855C585.348,226.183,615.385,200.687,633.227,168.181C650.33,137.022,651.558,100.509,635.651,68.723C617.731,32.915,588.284,0.734,548.305,-1.509C504.919,-3.944,463.327,19.918,442.153,57.864C421.466,94.938,426.488,140.49,448.975,176.5C470.135,210.386,508.396,229.657,548.305,227.855" fill="rgba(170, 207, 208, 0.3)" class="triangle-float3"></path><path d="M1083.999,620.467C1113.552,618.895,1143.064,609.003,1158.154,583.544C1173.516,557.627,1169.895,525.901,1155.851,499.247C1140.635,470.369,1116.61,444.238,1083.999,442.809C1049.282,441.287,1018.154,462.593,1000.341,492.43C982.035,523.093,975.257,562.339,994.791,592.235C1013.076,620.22,1050.617,622.243,1083.999,620.467" fill="rgba(170, 207, 208, 0.3)" class="triangle-float2"></path><path d="M911.916,145.106C943.227,144.17,968.972,124.244,985.724,97.775C1004.015,68.875,1018.607,33.056,1001.621,3.37C984.562,-26.444,946.229,-32.798,911.916,-31.221C880.738,-29.788,851.742,-15.606,835.439,11.008C818.348,38.908,813.836,74.008,830.045,102.43C846.386,131.083,878.946,146.092,911.916,145.106" fill="rgba(170, 207, 208, 0.3)" class="triangle-float1"></path><path d="M867.208,534.801C920.449,535.838,973.588,513.692,1000.25,467.596C1026.943,421.446,1018.922,364.755,992.27,318.581C965.612,272.396,920.509,238.739,867.208,237.104C811.05,235.381,755.247,261.28,728.113,310.478C701.746,358.285,714.081,416.182,742.852,462.582C769.927,506.246,815.841,533.8,867.208,534.801" fill="rgba(170, 207, 208, 0.3)" class="triangle-float2"></path><path d="M47.836,509.921C75.861,510.859,99.402,489.716,111.938,464.633C123.226,442.049,119.138,415.588,105.651,394.244C93.126,374.424,71.253,364.354,47.836,363.192C21.78,361.899,-7.664,365.457,-20.856,387.964C-34.141,410.63,-22.138,437.688,-9.245,460.579C3.984,484.066,20.895,509.02,47.836,509.921" fill="rgba(170, 207, 208, 0.3)" class="triangle-float2"></path><path d="M1231.355,468.067C1264.86,466.529,1287.864,438.339,1304.496,409.213C1320.947,380.404,1333.333,346.403,1317.47,317.266C1301.073,287.147,1265.625,276.112,1231.355,274.866C1194.219,273.516,1152.916,278.797,1133.666,310.584C1113.94,343.158,1125.505,384.146,1145.579,416.507C1164.427,446.891,1195.638,469.707,1231.355,468.067" fill="rgba(170, 207, 208, 0.3)" class="triangle-float1"></path></g><defs><mask id="SvgjsMask1246"><rect width="1440" height="560" fill="#ffffff"></rect></mask><style>
            @keyframes float1 {
                0%{transform: translate(0, 0)}
                50%{transform: translate(-10px, 0)}
                100%{transform: translate(0, 0)}
            }

            .triangle-float1 {
                animation: float1 5s infinite;
            }

            @keyframes float2 {
                0%{transform: translate(0, 0)}
                50%{transform: translate(-5px, -5px)}
                100%{transform: translate(0, 0)}
            }

            .triangle-float2 {
                animation: float2 4s infinite;
            }

            @keyframes float3 {
                0%{transform: translate(0, 0)}
                50%{transform: translate(0, -10px)}
                100%{transform: translate(0, 0)}
            }

            .triangle-float3 {
                animation: float3 6s infinite;
            }
        </style></defs></svg>