<svg xmlns="http://www.w3.org/2000/svg" version="1.1" xmlns:xlink="http://www.w3.org/1999/xlink" xmlns:svgjs="http://svgjs.com/svgjs" width="1400" height="560" preserveAspectRatio="none" viewBox="0 0 1400 560"><g mask="url(&quot;#SvgjsMask1021&quot;)" fill="none"><path d="M516.466,362.77C540.509,361.379,561.524,347.302,573.071,326.168C584.14,305.908,582.344,282.081,571.763,261.561C560.072,238.889,541.975,216.34,516.466,216.393C491.015,216.446,474.519,239.882,461.565,261.79C448.278,284.262,434.785,310.511,447.254,333.446C460.081,357.039,489.656,364.321,516.466,362.77" fill="rgba(170, 207, 208, 0.3)" class="triangle-float2"></path><path d="M1163.118,441.607C1204.574,443.542,1241.835,415.407,1260.561,378.371C1277.684,344.507,1269.259,304.579,1248.447,272.848C1229.721,244.297,1197.248,228.835,1163.118,229.805C1130.679,230.727,1102.308,249.533,1085.792,277.468C1068.945,305.961,1066.149,340.009,1080.256,369.953C1096.935,405.358,1124.024,439.782,1163.118,441.607" fill="rgba(170, 207, 208, 0.3)" class="triangle-float3"></path><path d="M1180.29,597.496C1228.122,598.558,1282.801,598.44,1308.22,557.907C1334.646,515.769,1320.116,460.56,1291.817,419.656C1267.243,384.136,1223.458,374.435,1180.29,372.992C1133.481,371.427,1080.855,372.654,1055.053,411.741C1027.329,453.739,1033.701,510.711,1061.833,552.437C1087.145,589.98,1135.022,596.491,1180.29,597.496" fill="rgba(170, 207, 208, 0.3)" class="triangle-float1"></path><path d="M194.21,730.777C246.604,730.171,297.439,712.306,327.364,669.294C362.463,618.846,384.284,553.613,355.102,499.526C324.841,443.44,257.833,418.833,194.21,422.499C136.524,425.823,90.538,465.851,62.516,516.384C35.452,565.189,26.402,624.884,55.612,672.436C83.731,718.213,140.49,731.398,194.21,730.777" fill="rgba(170, 207, 208, 0.3)" class="triangle-float1"></path><path d="M803.834,261.643C840.773,260.967,875.811,244.779,895.296,213.39C915.916,180.172,918.793,139.252,901.607,104.134C882.001,64.07,848.435,26.98,803.834,26.495C758.641,26.004,722.907,61.739,702.311,101.969C683.596,138.525,684.348,182.191,706.383,216.847C726.942,249.182,765.522,262.344,803.834,261.643" fill="rgba(170, 207, 208, 0.3)" class="triangle-float2"></path><path d="M242.397,488.928C267.406,488.709,295.743,488.456,308.95,467.218C322.642,445.2,315.163,416.655,300.74,395.109C287.938,375.983,265.396,368.642,242.397,367.795C217.378,366.874,190.212,369.837,176.107,390.521C160.424,413.52,158.238,445.317,173.79,468.404C188.084,489.623,216.814,489.153,242.397,488.928" fill="rgba(170, 207, 208, 0.3)" class="triangle-float2"></path><path d="M902.425,106.165C926.873,105.14,947.14,89.511,959.597,68.45C972.324,46.933,977.899,20.724,965.949,-1.234C953.532,-24.05,928.375,-37.776,902.425,-36.606C878.203,-35.514,860.578,-16.713,848.105,4.08C835.142,25.688,824.466,51.372,836.303,73.617C848.671,96.861,876.118,107.268,902.425,106.165" fill="rgba(170, 207, 208, 0.3)" class="triangle-float2"></path><path d="M372.725,201.712C407.023,201.653,439.093,182.652,455.021,152.277C469.97,123.77,461.94,90.424,445.638,62.668C429.59,35.344,404.394,13.254,372.725,12.161C339.243,11.005,307.555,28.455,290.539,57.314C273.255,86.627,273.106,122.986,289.939,152.56C306.954,182.454,338.328,201.771,372.725,201.712" fill="rgba(170, 207, 208, 0.3)" class="triangle-float1"></path><path d="M875.016,171.856C890.847,171.249,906.235,165.783,914.934,152.542C924.581,137.858,928.796,118.732,919.853,103.608C911.028,88.683,892.351,84.678,875.016,85.031C858.416,85.369,842.22,91.412,833.229,105.37C823.44,120.567,819.796,140.517,829.415,155.822C838.604,170.443,857.76,172.518,875.016,171.856" fill="rgba(170, 207, 208, 0.3)" class="triangle-float3"></path></g><defs><mask id="SvgjsMask1021"><rect width="1400" height="560" fill="#ffffff"></rect></mask><style>
            @keyframes float1 {
                0%{transform: translate(0, 0)}
                50%{transform: translate(-10px, 0)}
                100%{transform: translate(0, 0)}
            }

            .triangle-float1 {
                animation: float1 5s infinite;
            }

            @keyframes float2 {
                0%{transform: translate(0, 0)}
                50%{transform: translate(-5px, -5px)}
                100%{transform: translate(0, 0)}
            }

            .triangle-float2 {
                animation: float2 4s infinite;
            }

            @keyframes float3 {
                0%{transform: translate(0, 0)}
                50%{transform: translate(0, -10px)}
                100%{transform: translate(0, 0)}
            }

            .triangle-float3 {
                animation: float3 6s infinite;
            }
        </style></defs></svg>