<svg xmlns="http://www.w3.org/2000/svg" version="1.1" xmlns:xlink="http://www.w3.org/1999/xlink" xmlns:svgjs="http://svgjs.com/svgjs" width="1400" height="560" preserveAspectRatio="none" viewBox="0 0 1400 560"><g mask="url(&quot;#SvgjsMask1168&quot;)" fill="none"><path d="M1080.36,566.898C1115.946,566.035,1139.14,533.152,1155.611,501.596C1170.58,472.917,1175.963,440.232,1161.603,411.244C1145.438,378.613,1116.765,348.832,1080.36,349.69C1044.893,350.526,1021.999,383.522,1005.493,414.925C990.409,443.623,984.186,476.321,998.514,505.404C1014.677,538.214,1043.796,567.784,1080.36,566.898" fill="rgba(170, 207, 208, 0.3)" class="triangle-float3"></path><path d="M69.918,255.339C105.537,252.146,126.579,219.718,144.861,188.982C163.767,157.197,186.836,120.898,169.232,88.374C151.157,54.981,107.886,50.033,69.918,50.523C33.055,50.999,-4.659,60.17,-25.051,90.883C-47.629,124.888,-52.983,169.537,-32.571,204.885C-12.162,240.227,29.269,258.982,69.918,255.339" fill="rgba(170, 207, 208, 0.3)" class="triangle-float3"></path><path d="M141.214,120.363C179.003,123.872,221.723,116.592,240.985,83.891C260.433,50.875,247.119,9.226,225.183,-22.192C206.431,-49.049,173.966,-59.51,141.214,-59.007C109.493,-58.52,77.271,-47.261,61.598,-19.678C46.079,7.635,53.561,40.622,69.087,67.931C84.832,95.626,109.492,117.418,141.214,120.363" fill="rgba(170, 207, 208, 0.3)" class="triangle-float3"></path><path d="M203.989,244.291C254.689,243.177,298.22,210.345,322.145,165.632C344.723,123.437,341.059,73.531,317.713,31.756C293.722,-11.173,253.167,-45.808,203.989,-45.797C154.827,-45.786,115.274,-10.571,90.354,31.807C65.017,74.894,52.914,126.95,76.487,171.028C101.263,217.355,151.466,245.445,203.989,244.291" fill="rgba(170, 207, 208, 0.3)" class="triangle-float1"></path><path d="M77.604,532.969C114.702,533.265,154.793,527.324,174.632,495.975C195.582,462.871,190.155,420.211,170.359,386.405C150.787,352.981,116.265,327.924,77.604,330.278C41.881,332.453,20.387,365.597,2.55,396.624C-15.205,427.508,-33.955,463.239,-16.776,494.447C0.787,526.351,41.186,532.678,77.604,532.969" fill="rgba(170, 207, 208, 0.3)" class="triangle-float2"></path><path d="M1315.199,181.785C1355.892,181.25,1400.306,176.062,1421.735,141.464C1444.025,105.476,1436.925,58.45,1413.38,23.27C1392.238,-8.318,1353.171,-19.409,1315.199,-17.714C1280.442,-16.162,1250.833,2.745,1231.111,31.407C1207.577,65.608,1183.433,108.096,1203.695,144.332C1224.205,181.011,1273.179,182.338,1315.199,181.785" fill="rgba(170, 207, 208, 0.3)" class="triangle-float2"></path><path d="M1145.003,690.646C1194.588,693.386,1246.69,681.51,1274.627,640.452C1305.999,594.346,1311.68,533.753,1285.127,484.713C1257.366,433.443,1203.255,398.588,1145.003,401.06C1090.168,403.387,1047.518,446.169,1024.063,495.789C1003.859,538.531,1013.093,587.21,1038.024,627.378C1061.44,665.105,1100.668,688.196,1145.003,690.646" fill="rgba(170, 207, 208, 0.3)" class="triangle-float2"></path><path d="M902.245,314.714C948.49,312.402,990.192,286.287,1011.67,245.267C1031.73,206.956,1022.014,162.843,1001.773,124.627C979.782,83.106,949.136,41.634,902.245,38.665C851.139,35.429,804.398,66.474,778.196,110.471C751.342,155.564,744.831,212.386,772.075,257.244C798.464,300.694,851.472,317.252,902.245,314.714" fill="rgba(170, 207, 208, 0.3)" class="triangle-float1"></path><path d="M562.151,660.988C616.197,659.827,668.843,636.813,695.73,589.916C722.489,543.242,716.272,485.935,689.151,439.47C662.27,393.416,615.437,359.027,562.151,361.057C511.616,362.983,477.3,405.431,450.876,448.55C422.708,494.515,393.237,548.121,418.251,595.875C444.434,645.861,505.736,662.199,562.151,660.988" fill="rgba(170, 207, 208, 0.3)" class="triangle-float2"></path></g><defs><mask id="SvgjsMask1168"><rect width="1400" height="560" fill="#ffffff"></rect></mask><style>
            @keyframes float1 {
                0%{transform: translate(0, 0)}
                50%{transform: translate(-10px, 0)}
                100%{transform: translate(0, 0)}
            }

            .triangle-float1 {
                animation: float1 5s infinite;
            }

            @keyframes float2 {
                0%{transform: translate(0, 0)}
                50%{transform: translate(-5px, -5px)}
                100%{transform: translate(0, 0)}
            }

            .triangle-float2 {
                animation: float2 4s infinite;
            }

            @keyframes float3 {
                0%{transform: translate(0, 0)}
                50%{transform: translate(0, -10px)}
                100%{transform: translate(0, 0)}
            }

            .triangle-float3 {
                animation: float3 6s infinite;
            }
        </style></defs></svg>